<svg width="{width}" height="{height}"
  xmlns="http://www.w3.org/2000/svg" id="Layer_1" data-name="Layer 1" view-box="0 0 400 300">
  <path
    d="M122.08,82.6C95.6,92.89,76,119,72.08,150.53c-3.27,26.59,4.53,56,50.44,64.35,89.33,16.29,173,20.93,194.35-23S331.66,72.63,286.33,67.75C250.28,63.88,173.8,62.51,122.08,82.6Z"
    fill="#e6e6e6" opacity="0.3" />
  <path d="M161.7,99.8s-35.6,9.92-25.38,40.52l21-1.67Z" fill="{primaryColor}" />
  <path d="M161.7,99.8s-35.6,9.92-25.38,40.52l21-1.67Z" fill="#fff" opacity="0.44" />
  <path d="M196.19,91.8l-15.78,2.76s-57,6.19-32.26,52.43,86,20.45,86,20.45S287,85.81,196.19,91.8Z" fill="{primaryColor}" />
  <rect x="98.91" y="140.32" width="202.26" height="115.39" rx="11" fill="#e6e6e6" />
  <path
    d="M262.42,149.55s-6.28,8.63-12.72,6.1S233,125.83,232.35,107.57a34.91,34.91,0,0,1,7.86-.8C243.43,107,262.42,149.55,262.42,149.55Z"
    opacity="0.08" />
  <path
    d="M237.4,90.1a20,20,0,0,0-1.79-6.66,6.12,6.12,0,0,0-2.1-2.56c-3.07-1.95-8,0-9.5,3.13a7,7,0,0,0-.32,4.79,20.32,20.32,0,0,0,3.53,6.41,32.85,32.85,0,0,0,3.17,4.16.47.47,0,0,0,.3.18.52.52,0,0,0,.3-.14l6.69-5.34C237.63,92.77,237.55,91.43,237.4,90.1Z"
    fill="#f4a28c" />
  <path d="M234.31,89.09s45.42,47.86,33.2,60.06C247.62,169,227.22,95.21,227.22,95.21Z" fill="#f4a28c" />
  <path d="M136.32,140.32s11.83-8.39,16.66-2.2S147.07,153.55,136.32,140.32Z" fill="#f4a28c" />
  <polygon points="186.4 65.42 183.49 94.59 201.43 103.59 195.29 73.63 186.4 65.42" fill="#f4a28c" />
  <path d="M196.45,78.28A10.63,10.63,0,0,1,191,75.47s.55,5.34,6.74,10.28Z" fill="#ce8172" opacity="0.31" />
  <path
    d="M199.27,62.28s2.49,8.6,2.17,14.71a4.5,4.5,0,0,1-4.76,4.24c-3.07-.21-7.17-1.38-9.06-5.82l-4.14-7.15s-2.44-4.57,1.81-9.11S198,57,199.27,62.28Z"
    fill="#f4a28c" />
  <path d="M200.56,67.78l3.11,2.9a1.43,1.43,0,0,1-.44,2.38L200,74.35Z" fill="#f4a28c" />
  <path
    d="M184.53,77.46,180.5,66s-6.85-.62-5.17-5.2,4.62-1.87,4.32-7,3.73-6.43,6.88-3.82,1.47-1.25,5.07-2.09,4.7.72,5,3.48,5.33-.61,7,2.78,2.1,6.78-6.92,8.07S194.71,70.49,184.53,77.46Z"
    fill="{secondaryColor}" />
  <path d="M191.43,71.64s-.74-3.36-3.22-2.6-1.46,5.63,2.08,5.4Z" fill="#f4a28c" />
  <polygon points="263.95 78.09 211.16 80.2 208.35 70.41 254.28 44.29 263.95 78.09" fill="#24285b" />
  <rect x="224.87" y="75.48" width="5.3" height="19.4" transform="translate(-12.89 120.21) rotate(-28.81)"
    fill="#24285b" />
  <path
    d="M226.91,83a1.53,1.53,0,0,1,1.19.32,1.78,1.78,0,0,1,.07,2.16c-.39.67-1,1.22-1.34,1.92a3.45,3.45,0,0,1,.92,3c-.14.73-.72,1.51-1.45,1.4a1.69,1.69,0,0,1-.91-.58c-1.07-1.13-2.32-3.34-1.88-5C223.86,85,225.56,83.18,226.91,83Z"
    fill="#f4a28c" />
</svg>