<svg width="{width}" id="bc12af9e-5209-4277-b7b6-ed9bcafb0a7d" data-name="Layer 1"
  xmlns="http://www.w3.org/2000/svg" viewBox="0 0 137.71999 213.16001">
  <defs>
    <style>
        .a23fd8e4-2cd4-45d1-aaf7-34388f2e1791 {
          fill: #c9c9c9;
        }

        .bb8c95bb-d9c9-4b79-a9d8-52e71c4aa09c,
        .bf330773-de79-4f7e-916b-5567f5670bff,
        .f41c5300-4218-4552-af07-d08670c30a63 {
          fill: #fff;
        }

        .bb8c95bb-d9c9-4b79-a9d8-52e71c4aa09c {
          opacity: 0.56;
        }

        .a91e2a55-a1a6-4e74-8fbc-7747ef3989e3,
        .acb68752-cba5-4f27-bffd-adb8ffbe0e4d,
        .bb8c95bb-d9c9-4b79-a9d8-52e71c4aa09c,
        .e56d9f12-e5de-44e9-9b64-2fd3afe52405,
        .f2f7985b-bae4-400e-8d83-c60e1b154f75,
        .f41c5300-4218-4552-af07-d08670c30a63 {
          isolation: isolate;
        }

        .acb68752-cba5-4f27-bffd-adb8ffbe0e4d {
          opacity: 0.12;
        }

        .a91e2a55-a1a6-4e74-8fbc-7747ef3989e3,
        .b459b458-b03a-4a15-ac97-98d2825c9749,
        .f2f7985b-bae4-400e-8d83-c60e1b154f75 {
          fill: #24285b;
        }

        .f9e70a7c-735a-4a8b-9561-542855099c30 {
          fill: #f4a28c;
        }

        .bbe4b708-7203-4176-b040-7120ea55c37a {
          fill:$ {
            svgColorSecondary
          }

          ;
        }

        .e56d9f12-e5de-44e9-9b64-2fd3afe52405 {
          fill: #ce8172;
        }

        .e56d9f12-e5de-44e9-9b64-2fd3afe52405,
        .f2f7985b-bae4-400e-8d83-c60e1b154f75 {
          opacity: 0.31;
        }

        .fbef9748-13d5-45b9-8835-46e20e9b132b {
          fill:$ {
            svgColor
          }

          ;
        }

        .a0e55165-d3ec-4aa9-9754-434fe4656404 {
          fill: #e6e6e6;
        }

        .a91e2a55-a1a6-4e74-8fbc-7747ef3989e3 {
          opacity: 0.74;
        }

        .f41c5300-4218-4552-af07-d08670c30a63 {
          opacity: 0.39;
        }
    </style>
  </defs>
  <rect className="a23fd8e4-2cd4-45d1-aaf7-34388f2e1791" width="118.84999" height="213.16001" />
  <rect className="bf330773-de79-4f7e-916b-5567f5670bff" x="9.83" y="24.29" width="98.38" height="150.00999" />
  <circle className="bb8c95bb-d9c9-4b79-a9d8-52e71c4aa09c" cx="59.78" cy="193.52" r="11.63" />
  <rect className="acb68752-cba5-4f27-bffd-adb8ffbe0e4d" x="49.37" y="8.33" width="33.31999" height="4.86" />
  <circle className="bf330773-de79-4f7e-916b-5567f5670bff" cx="37.3" cy="11.29" r="5.43" />
  <circle className="b459b458-b03a-4a15-ac97-98d2825c9749" cx="34.89999" cy="63.99" r="14.73" />
  <path className="f9e70a7c-735a-4a8b-9561-542855099c30"
    d="M937.47652,482.63367a12.93989,12.93989,0,0,1,.24,3.49,1,1,0,0,1-1.19.9,2.34,2.34,0,0,1-2-1.52l-.84-1.75a1.92,1.92,0,0,1,.59-2.11,2,2,0,0,1,3.2.99Z"
    transform="translate(-900.61652 -425.41367)" />
  <polygon className="f9e70a7c-735a-4a8b-9561-542855099c30"
    points="33.21 58.65 32.93 65.54 36.74 65.42 35.41 60.46 33.21 58.65" />
  <path className="bbe4b708-7203-4176-b040-7120ea55c37a"
    d="M936.97652,482.78367a8.58987,8.58987,0,0,1-1.95.08,1.76,1.76,0,0,1,.23,1.91,1.43,1.43,0,0,1-1.65.77l-.28-2.69a2.14,2.14,0,0,1,.85-2,7.29034,7.29034,0,0,1,.85-.55c.73-.4,1.92,0,2.56-.62a.5.5,0,0,1,.83.23,2.29,2.29,0,0,1-.82,2.69A2.35969,2.35969,0,0,1,936.97652,482.78367Z"
    transform="translate(-900.61652 -425.41367)" />
  <path className="f9e70a7c-735a-4a8b-9561-542855099c30" d="M935.46651,484.68366s-.11-.8-.7-.67-.45,1.3.39,1.31Z"
    transform="translate(-900.61652 -425.41367)" />
  <path className="f9e70a7c-735a-4a8b-9561-542855099c30" d="M937.68651,483.94366l.67.74a.34.34,0,0,1-.14.55l-.79.24Z"
    transform="translate(-900.61652 -425.41367)" />
  <path className="e56d9f12-e5de-44e9-9b64-2fd3afe52405"
    d="M936.36652,486.94366a2.51,2.51,0,0,1-1.31-.58,4,4,0,0,0,1.72,2.32Z"
    transform="translate(-900.61652 -425.41367)" />
  <path className="fbef9748-13d5-45b9-8835-46e20e9b132b"
    d="M925.58652,500.28367s-.23-9.25,9.75-9.72,9.71,10.13,9.71,10.13S935.63651,509.27367,925.58652,500.28367Z"
    transform="translate(-900.61652 -425.41367)" />
  <circle className="b459b458-b03a-4a15-ac97-98d2825c9749" cx="33.73999" cy="147.15" r="14.73" />
  <path className="f9e70a7c-735a-4a8b-9561-542855099c30"
    d="M936.32651,565.79366a12.94,12.94,0,0,1,.24,3.49.99993.99993,0,0,1-1.19.9,2.33,2.33,0,0,1-2-1.52l-.84-1.75a1.9,1.9,0,0,1,.59-2.11,2,2,0,0,1,3.2.99Z"
    transform="translate(-900.61652 -425.41367)" />
  <polygon className="f9e70a7c-735a-4a8b-9561-542855099c30"
    points="32.05 141.81 31.78 148.7 35.59 148.58 34.26 143.62 32.05 141.81" />
  <path className="f9e70a7c-735a-4a8b-9561-542855099c30" d="M936.52651,567.12366l.68.74a.34.34,0,0,1-.15.55l-.78.24Z"
    transform="translate(-900.61652 -425.41367)" />
  <path className="e56d9f12-e5de-44e9-9b64-2fd3afe52405"
    d="M935.20652,570.12366a2.49006,2.49006,0,0,1-1.3-.58,4,4,0,0,0,1.72,2.32Z"
    transform="translate(-900.61652 -425.41367)" />
  <path className="fbef9748-13d5-45b9-8835-46e20e9b132b"
    d="M924.43651,583.44367s-.23-9.24,9.75-9.72,9.71,10.13,9.71,10.13S934.48652,592.43366,924.43651,583.44367Z"
    transform="translate(-900.61652 -425.41367)" />
  <path className="bbe4b708-7203-4176-b040-7120ea55c37a"
    d="M932.58652,569.42367l-1.15-2.15s-1.94.21-2-1.2,1.44-1.07,1.44-2-.19-2.34,1.3-2.31,1.9,1.24,2.59.46a1.06,1.06,0,0,1,1.85.71c.08.95,1.09.66.68,2s-2.53.64-2.53.64-1.92,0-1.68.85S934.84652,569.12366,932.58652,569.42367Z"
    transform="translate(-900.61652 -425.41367)" />
  <path className="f9e70a7c-735a-4a8b-9561-542855099c30" d="M933.96651,567.63366s-.35-.73-.88-.43,0,1.37.76,1.13Z"
    transform="translate(-900.61652 -425.41367)" />
  <circle className="b459b458-b03a-4a15-ac97-98d2825c9749" cx="34.31999" cy="104.78001" r="14.73" />
  <path className="f9e70a7c-735a-4a8b-9561-542855099c30"
    d="M936.90651,523.43366a13.35938,13.35938,0,0,1,.24,3.48,1.06,1.06,0,0,1-1.19.91,2.32,2.32,0,0,1-2-1.53l-.84-1.75a1.88,1.88,0,0,1,.59-2.1,2,2,0,0,1,3.2.99Z"
    transform="translate(-900.61652 -425.41367)" />
  <polygon className="f9e70a7c-735a-4a8b-9561-542855099c30"
    points="32.63 99.45 32.36 106.34 36.16 106.22 34.83 101.25 32.63 99.45" />
  <path className="f9e70a7c-735a-4a8b-9561-542855099c30" d="M934.89652,525.48366s-.11-.8-.71-.67-.44,1.29.39,1.31Z"
    transform="translate(-900.61652 -425.41367)" />
  <path className="f9e70a7c-735a-4a8b-9561-542855099c30" d="M937.10651,524.74366l.68.73a.34.34,0,0,1-.15.55l-.78.25Z"
    transform="translate(-900.61652 -425.41367)" />
  <path className="e56d9f12-e5de-44e9-9b64-2fd3afe52405"
    d="M935.78652,527.74366a2.50006,2.50006,0,0,1-1.31-.59,3.92,3.92,0,0,0,1.73,2.32Z"
    transform="translate(-900.61652 -425.41367)" />
  <path className="fbef9748-13d5-45b9-8835-46e20e9b132b"
    d="M925.00652,541.12366s-.22-9.25,9.75-9.73,9.72,10.14,9.72,10.14S935.05652,550.12366,925.00652,541.12366Z"
    transform="translate(-900.61652 -425.41367)" />
  <path className="bbe4b708-7203-4176-b040-7120ea55c37a"
    d="M929.55652,528.47367a3.59,3.59,0,0,0-.35,3,2,2,0,0,0,2.07,1.53c2.63-.1,2.24-.87,2.59-4.64.32-3.54.61-4.59,2.69-5.12s.8-2.58-1-2.53-5,.14-4.91,3.44A8.15993,8.15993,0,0,1,929.55652,528.47367Z"
    transform="translate(-900.61652 -425.41367)" />
  <rect className="a0e55165-d3ec-4aa9-9754-434fe4656404" x="57.73999" y="52.79" width="20.14" height="4.13" />
  <rect className="bbe4b708-7203-4176-b040-7120ea55c37a" x="9.83" y="24.29" width="98.38" height="17.51" />
  <rect className="bf330773-de79-4f7e-916b-5567f5670bff" x="44.42999" y="30.56" width="51.67" height="4.99" />
  <circle className="b459b458-b03a-4a15-ac97-98d2825c9749" cx="21.12" cy="32.28" r="4.57" />
  <circle className="a91e2a55-a1a6-4e74-8fbc-7747ef3989e3" cx="25.69" cy="32.28" r="4.57" />
  <circle className="f2f7985b-bae4-400e-8d83-c60e1b154f75" cx="31.01999" cy="32.28" r="4.57" />
  <polygon className="bbe4b708-7203-4176-b040-7120ea55c37a"
    points="57.74 61.19 57.74 69.67 51.94 73.74 57.74 73.74 137.72 73.74 137.72 61.19 57.74 61.19" />
  <rect className="f41c5300-4218-4552-af07-d08670c30a63" x="65.17" y="65.54" width="61.13" height="4.03" />
  <rect className="a0e55165-d3ec-4aa9-9754-434fe4656404" x="57.73999" y="91.95" width="20.14" height="4.13" />
  <polygon className="bbe4b708-7203-4176-b040-7120ea55c37a"
    points="57.74 100.34 57.74 108.82 51.94 112.9 57.74 112.9 137.72 112.9 137.72 100.34 57.74 100.34" />
  <rect className="f41c5300-4218-4552-af07-d08670c30a63" x="65.17" y="104.7" width="61.13" height="4.03" />
  <rect className="a0e55165-d3ec-4aa9-9754-434fe4656404" x="57.73999" y="135.95" width="20.14" height="4.13" />
  <polygon className="bbe4b708-7203-4176-b040-7120ea55c37a"
    points="57.74 144.35 57.74 152.83 51.94 156.9 57.74 156.9 137.72 156.9 137.72 144.35 57.74 144.35" />
  <rect className="f41c5300-4218-4552-af07-d08670c30a63" x="65.17" y="148.7" width="61.13" height="4.03" />
</svg>